<svg width="34" height="38" xmlns="http://www.w3.org/2000/svg">

 <g>
  <title>Layer 1</title>
  <path id="svg_1" d="m34,0l-34,0l3,34l14,4l14,-4l3,-34l0,0z" fill="#0277BD"/>
  <path id="svg_2" d="m17,3l0,31.9l11.2,-3.2l2.5,-28.7l-13.7,0z" fill="#039BE5"/>
  <path id="svg_3" d="m26.1,8l-9.1,0l0,4l4.9,0l-0.3,4l-4.6,0l0,4l4.4,0l-0.3,4.5l-4.1,1.4l0,4.2l7.9,-2.6l0.7,-11.5l0,0l0.5,-8z" fill="#FFF"/>
  <path id="svg_4" d="m17,8l0,4l-8.9,0l-0.3,-4l9.2,0zm-4.6,8l0.2,4l4.4,0l0,-4l-4.6,0zm0.4,6l-4,0l0.3,5.5l7.9,2.6l0,-4.2l-4.1,-1.4l-0.1,-2.5z" fill="#EEE"/>
 </g>
</svg>