<svg width="48" height="45" xmlns="http://www.w3.org/2000/svg">

 <g>
  <title>Layer 1</title>
  <path id="svg_1" d="m23.933,0.23989l-20.933,7.285l3.308,27.123l17.647,9.592l17.738,-9.722l3.307,-27.122l-21.067,-7.156z" fill="#bdbdbd"/>
  <path id="svg_2" d="m42.818,8.76689l-18.818,-6.392l0,39.56l15.832,-8.678l2.986,-24.49z" fill="#b71c1c"/>
  <path id="svg_3" d="m23.941,2.35489l-18.76,6.529l2.987,24.499l15.783,8.578l0.049,-0.026l0,-39.56l-0.059,-0.02z" fill="#dd2c00"/>
  <path id="svg_4" d="m24,4.23589l0,9.508l8.578,18.496l4.409,0l-12.987,-28.004z" fill="#bdbdbd"/>
  <path id="svg_5" d="m11.013,32.23989l4.409,0l8.578,-18.496l0,-9.508l-12.987,28.004z" fill="#eee"/>
  <path id="svg_6" d="m24,22.23989l6,0l0,4l-6,0l0,-4z" fill="#bdbdbd"/>
  <path id="svg_7" d="m18,22.23989l6,0l0,4l-6,0l0,-4z" fill="#eee"/>
 </g>
</svg>