<?xml version="1.0" standalone="no"?>
<!DOCTYPE svg PUBLIC "-//W3C//DTD SVG 20010904//EN"
 "http://www.w3.org/TR/2001/REC-SVG-20010904/DTD/svg10.dtd">
<svg version="1.0" xmlns="http://www.w3.org/2000/svg"
 width="475.000000pt" height="120.000000pt" viewBox="0 0 475.000000 120.000000"
 preserveAspectRatio="xMidYMid meet">

<g transform="translate(0.000000,120.000000) scale(0.100000,-0.100000)"
fill="#000000" stroke="none">
<path d="M1634 1180 c-39 -4 -85 -11 -102 -15 l-32 -7 0 -574 0 -574 500 0
500 0 0 360 c0 198 3 360 6 360 8 0 85 -62 119 -95 44 -43 155 -191 155 -208
0 -3 -48 -8 -107 -9 l-108 -3 -3 -72 -3 -72 148 -3 148 -3 17 -70 c9 -38 17
-89 17 -112 2 -76 -4 -73 162 -73 l149 0 0 29 c0 56 -72 277 -126 388 -110
225 -309 445 -514 569 -86 52 -235 121 -282 129 l-38 7 -2 -488 -3 -489 -190
-3 c-104 -2 -205 0 -222 3 l-33 6 -2 512 -3 512 -40 1 c-22 1 -72 -2 -111 -6z"/>
<path d="M1330 1111 c-314 -117 -581 -354 -734 -651 -55 -107 -116 -273 -135
-368 -18 -89 -30 -83 141 -80 l153 3 3 30 c3 45 22 145 34 188 l11 37 144 0
143 0 0 75 0 74 -111 3 -110 3 43 65 c45 67 208 240 227 240 7 0 12 -108 13
-357 l3 -358 128 -3 127 -3 0 566 c0 311 -1 565 -2 565 -2 -1 -37 -14 -78 -29z"/>
<path d="M10 910 l0 -160 298 0 299 0 39 47 c62 74 133 144 212 207 39 32 72
60 72 62 0 2 -207 4 -460 4 l-460 0 0 -160z"/>
<path d="M2755 1048 c70 -55 187 -162 216 -198 18 -22 36 -37 41 -34 5 3 7 2
6 -3 -1 -4 6 -20 16 -35 l18 -28 329 0 329 0 5 23 c3 12 4 83 3 157 l-3 135
-495 3 -495 2 30 -22z"/>
<path d="M4350 550 c0 -116 4 -210 9 -210 8 0 90 37 256 115 117 55 141 92 91
138 -22 20 -330 168 -348 167 -5 0 -8 -94 -8 -210z"/>
<path d="M10 550 l0 -160 195 0 194 0 21 48 c26 59 129 240 141 248 32 20 -16
24 -271 24 l-280 0 0 -160z"/>
<path d="M3113 674 c12 -20 30 -48 39 -62 25 -41 42 -71 72 -132 15 -30 31
-62 35 -70 7 -13 43 -15 232 -15 l224 0 0 155 0 155 -312 3 -312 2 22 -36z"/>
<path d="M10 190 l0 -160 133 0 c72 0 137 4 143 8 6 4 20 47 32 97 12 50 30
117 42 149 11 33 20 61 20 63 0 1 -83 3 -185 3 l-185 0 0 -160z"/>
<path d="M3300 301 c10 -28 28 -94 40 -148 13 -54 24 -103 25 -109 2 -6 63
-11 168 -13 159 -2 166 -2 177 18 7 13 10 75 9 161 l-1 140 -218 0 -218 0 18
-49z"/>
</g>
</svg>
